<svg width="280" height="35" viewBox="0 0 280 35" fill="none" xmlns="http://www.w3.org/2000/svg">
<path d="M28.6806 32.408L27.0006 32.696C26.6166 32.76 26.2166 32.76 25.8006 32.696C25.3846 32.632 24.9526 32.6 24.5046 32.6C24.4086 32.6 24.2646 32.6 24.0726 32.6C23.8806 32.6 23.6566 32.6 23.4006 32.6C23.1766 32.6 22.9526 32.616 22.7286 32.648C22.5046 32.648 22.3126 32.648 22.1526 32.648L21.0966 31.928C21.1926 31.288 21.1606 30.824 21.0006 30.536C20.8726 30.248 20.7766 29.976 20.7126 29.72C20.6486 29.528 20.5206 29.224 20.3286 28.808C20.1366 28.392 19.9606 27.912 19.8006 27.368C19.8006 27.272 19.6406 26.984 19.3206 26.504C19.0006 26.024 18.7446 25.592 18.5526 25.208L17.9766 25.448C17.8166 25.448 17.6406 25.496 17.4486 25.592C17.2566 25.688 16.7766 25.736 16.0086 25.736C15.9126 25.544 15.7526 25.416 15.5286 25.352C15.3046 25.256 15.0486 25.24 14.7606 25.304C14.5046 25.336 14.2326 25.432 13.9446 25.592C13.6886 25.752 13.4646 25.944 13.2726 26.168L11.3046 26.456C11.1766 26.168 11.0326 25.944 10.8726 25.784C10.7446 25.592 10.6006 25.416 10.4406 25.256C10.3126 25.096 10.2006 24.92 10.1046 24.728C10.0086 24.536 9.96056 24.28 9.96056 23.96C10.6006 23.8 10.9686 23.592 11.0646 23.336C11.1926 23.08 11.2886 22.968 11.3526 23C11.5446 23.096 11.7206 23.144 11.8806 23.144C11.6566 23.144 11.5926 23.112 11.6886 23.048C11.7846 22.984 12.2166 22.824 12.9846 22.568L16.4886 22.136L17.2086 22.664C17.7206 22.792 18.1046 22.824 18.3606 22.76C18.6166 22.696 18.7926 22.584 18.8886 22.424C18.9846 22.232 19.0326 22.024 19.0326 21.8C19.0646 21.576 19.0966 21.384 19.1286 21.224C19.1926 20.872 19.1126 20.584 18.8886 20.36C18.6966 20.104 18.4246 19.88 18.0726 19.688C18.0086 19.336 17.8806 18.936 17.6886 18.488C17.5286 18.008 17.3206 17.448 17.0646 16.808C16.8406 16.2 16.6326 15.56 16.4406 14.888C16.2806 14.184 16.1366 13.544 16.0086 12.968C15.8806 12.392 15.7846 11.912 15.7206 11.528C15.6566 11.144 15.6086 10.92 15.5766 10.856C15.1286 10.568 14.7606 10.552 14.4726 10.808C14.1846 11.032 13.9446 11.368 13.7526 11.816C13.5926 12.264 13.4806 12.744 13.4166 13.256C13.3846 13.736 13.3846 14.072 13.4166 14.264C13.3846 14.328 13.3046 14.44 13.1766 14.6C13.0486 14.728 12.9046 14.872 12.7446 15.032C12.5846 15.192 12.4406 15.352 12.3126 15.512C12.1846 15.64 12.1046 15.736 12.0726 15.8C11.9446 16.024 11.9126 16.264 11.9766 16.52C12.0406 16.776 11.9926 17 11.8326 17.192C11.1926 18.344 10.4406 19.256 9.57656 19.928C9.35256 20.12 9.17656 20.392 9.04856 20.744C8.92056 21.096 8.84056 21.464 8.80856 21.848C8.77656 22.232 8.80856 22.616 8.90456 23C9.00056 23.352 9.17656 23.64 9.43256 23.864C9.11256 24.056 8.85656 24.264 8.66456 24.488C8.50456 24.68 8.36056 24.904 8.23256 25.16C8.13656 25.384 8.04056 25.64 7.94456 25.928C7.84856 26.184 7.73656 26.472 7.60856 26.792C7.06456 28.232 6.79256 28.984 6.79256 29.048L6.12056 30.44L5.49656 32.984C5.52856 33.464 5.35256 33.752 4.96856 33.848C4.61656 33.944 4.04056 33.992 3.24056 33.992C2.47256 34.184 1.80056 34.28 1.22456 34.28C0.648563 34.248 0.456563 33.944 0.648563 33.368C1.48056 31.384 2.08856 29.912 2.47256 28.952C2.88856 27.96 3.09656 27.208 3.09656 26.696C3.09656 26.536 3.16056 26.408 3.28856 26.312C3.44856 26.184 3.57656 26.088 3.67256 26.024C3.70456 25.96 3.81656 25.624 4.00856 25.016C4.23256 24.408 4.47256 23.736 4.72856 23C4.98456 22.232 5.22456 21.512 5.44856 20.84C5.70456 20.136 5.89656 19.656 6.02456 19.4C6.31256 18.792 6.64856 18.104 7.03256 17.336C7.44856 16.568 7.92856 15.832 8.47256 15.128C8.76056 14.744 9.00056 14.216 9.19256 13.544C9.41656 12.872 9.62456 12.136 9.81656 11.336C10.0086 10.536 10.2166 9.72 10.4406 8.888C10.6646 8.056 10.9526 7.288 11.3046 6.584C11.4966 6.52 12.0566 5.816 12.9846 4.472C13.0486 4.408 13.0966 4.344 13.1286 4.28C13.1926 4.184 13.2566 4.104 13.3206 4.04L19.4646 3.656C19.5926 3.816 19.7366 4.008 19.8966 4.232C20.0566 4.456 20.2326 4.696 20.4246 4.952C21.0326 5.72 21.4006 6.328 21.5286 6.776C21.6566 7.224 21.7366 7.528 21.7686 7.688C21.7046 7.784 22.0406 8.872 22.7766 10.952C22.9686 11.464 23.1286 12.04 23.2566 12.68C23.3846 13.32 23.4806 13.928 23.5446 14.504C23.6086 15.048 23.6406 15.528 23.6406 15.944C23.6406 16.328 23.6246 16.536 23.5926 16.568C23.5286 16.6 24.0406 17 25.1286 17.768C25.3846 17.96 25.5286 18.136 25.5606 18.296C25.6246 18.456 25.6246 18.6 25.5606 18.728C25.5286 18.856 25.4646 18.968 25.3686 19.064C25.2726 19.16 25.2246 19.224 25.2246 19.256L26.5206 20.984C26.5206 20.984 26.8886 22.376 27.6246 25.16C28.0406 26.504 28.3446 27.656 28.5366 28.616C28.7286 29.544 28.8246 30.264 28.8246 30.776C28.8246 30.84 28.8406 30.888 28.8726 30.92C28.8726 30.888 28.9046 30.968 28.9686 31.16L28.6806 32.408ZM53.8101 13.496V15.272L53.5221 15.56L49.1541 14.648L45.3141 16.424L44.2581 18.872C43.2981 20.792 42.5941 22.536 42.1461 24.104C41.6981 25.64 41.7461 26.952 42.2901 28.04L43.6821 30.44L48.7221 29.576L50.8341 28.856H54.7701L55.2501 30.536L49.8741 32.072L42.2901 33.656L39.9861 32.168H36.0501L34.5621 30.536C34.1781 28.712 34.2261 26.872 34.7061 25.016C35.1861 23.128 35.9061 21.208 36.8661 19.256L42.2421 15.368L43.5861 13.064L45.1221 12.488L46.1781 11.624L53.4741 12.536L53.8101 13.496ZM93.0681 32.216L90.3801 33.032L86.8761 33.464L86.5401 32.648L87.2601 29.864L88.1241 27.32L88.3641 18.248L87.2121 16.088H85.8201L83.6121 17.72H83.0841C82.7321 17.72 82.5081 17.928 82.4121 18.344C82.3481 18.728 82.3481 19.176 82.4121 19.688C82.1241 19.784 81.9161 20.264 81.7881 21.128L81.5961 22.472L81.5481 25.4L80.6841 29.24L81.0201 31.16L80.5881 32.888L80.1561 33.32L74.8281 33.704L73.7241 32.696L74.0601 30.824L74.7321 25.88C74.8601 25.304 74.9721 24.648 75.0681 23.912C75.1961 23.176 75.2921 22.44 75.3561 21.704C75.4201 20.936 75.4521 20.216 75.4521 19.544C75.4841 18.84 75.4841 18.264 75.4521 17.816C75.3881 17.464 75.3881 17.176 75.4521 16.952C75.5161 16.696 75.5321 16.504 75.5001 16.376L74.5881 15.512L71.6121 15.992L70.6521 15.176C69.8841 14.728 69.4841 15 69.4521 15.992C69.2601 16.28 69.0841 16.52 68.9241 16.712C68.7961 16.872 68.7161 17.128 68.6841 17.48C68.5241 17.544 68.3961 17.624 68.3001 17.72C68.1721 17.848 68.0441 18.04 67.9161 18.296C67.7881 18.552 67.6921 18.92 67.6281 19.4C67.5001 20.328 67.4361 21.112 67.4361 21.752C67.4361 22.392 67.5161 22.84 67.6761 23.096V23.96L66.8601 25.88L66.6201 29.288L66.1881 32.6L65.8041 33.032L59.9961 33.512L59.0361 32.648L59.3241 30.824L59.6121 28.328L59.8041 24.68C59.8041 24.072 59.8841 23.496 60.0441 22.952C60.2041 22.408 60.3481 21.8 60.4761 21.128L60.9561 17.336C61.1801 17.112 61.4201 16.712 61.6761 16.136C61.9641 15.56 62.1081 15 62.1081 14.456C62.1081 14.296 62.0761 14.184 62.0121 14.12C61.9801 14.024 61.9321 13.912 61.8681 13.784L62.5881 12.824C62.6521 12.824 62.7961 12.84 63.0201 12.872C63.2441 12.872 63.5001 12.872 63.7881 12.872C64.1081 12.84 64.4281 12.824 64.7481 12.824C65.0681 12.792 65.3721 12.744 65.6601 12.68C66.8121 12.52 67.5321 12.28 67.8201 11.96L69.6441 11.864L69.4521 13.688C69.7401 13.976 70.0441 14.152 70.3641 14.216C70.7161 14.248 71.0681 14.2 71.4201 14.072C71.7721 13.912 72.1081 13.688 72.4281 13.4C72.7481 13.08 73.0201 12.712 73.2441 12.296L75.9801 12.344C76.3321 12.312 76.6681 12.296 76.9881 12.296C77.3401 12.264 77.6761 12.248 77.9961 12.248C78.5081 12.248 78.9881 12.296 79.4361 12.392C79.8841 12.456 80.1401 12.568 80.2041 12.728C80.3321 13.304 80.6041 13.528 81.0201 13.4C81.0841 13.368 81.1961 13.48 81.3561 13.736C81.5481 13.96 81.8361 14.104 82.2201 14.168C82.4121 14.232 82.5401 14.344 82.6041 14.504C82.7001 14.632 82.7641 14.776 82.7961 14.936C82.8281 15.096 82.8601 15.24 82.8921 15.368C82.9241 15.464 82.9881 15.512 83.0841 15.512L85.8681 13.304L90.3321 12.584L94.4121 15.848L94.5081 16.52C94.5081 16.712 94.4921 16.904 94.4601 17.096C94.4601 17.256 94.4121 17.384 94.3161 17.48V21.8L94.3641 26.408L93.5001 31.736L93.0681 32.216ZM119.473 22.52C118.769 22.424 118.145 22.552 117.601 22.904C117.409 23 117.217 23.096 117.025 23.192C116.833 23.256 116.641 23.32 116.449 23.384C116.353 23.416 116.257 23.448 116.161 23.48C116.065 23.512 115.985 23.544 115.921 23.576L109.249 25.592C107.393 25.176 106.737 25.48 107.281 26.504C107.377 26.728 107.505 27.064 107.665 27.512C107.825 27.96 107.953 28.28 108.049 28.472C108.465 28.632 108.897 28.888 109.345 29.24C109.793 29.56 110.209 29.752 110.593 29.816L111.457 29.72C111.681 29.72 111.985 29.704 112.369 29.672C112.785 29.64 113.185 29.592 113.569 29.528C113.985 29.432 114.353 29.32 114.673 29.192C115.025 29.064 115.265 28.904 115.393 28.712C115.489 28.552 115.633 28.44 115.825 28.376C116.017 28.28 116.209 28.2 116.401 28.136C116.529 28.104 116.641 28.088 116.737 28.088C116.865 28.056 117.009 28.024 117.169 27.992L117.697 29.864L117.121 30.968C117.089 31.032 116.977 31.112 116.785 31.208C116.625 31.272 116.433 31.368 116.209 31.496C115.985 31.624 115.761 31.752 115.537 31.88C115.345 31.976 115.201 32.072 115.105 32.168C115.041 32.232 114.865 32.264 114.577 32.264C114.321 32.264 114.017 32.264 113.665 32.264C113.345 32.264 113.009 32.28 112.657 32.312C112.305 32.344 112.033 32.408 111.841 32.504C111.393 32.728 111.041 32.872 110.785 32.936C110.561 33 110.369 33.048 110.209 33.08C110.049 33.144 109.937 33.128 109.873 33.032C109.809 33 109.697 32.984 109.537 32.984C109.441 32.984 109.313 32.984 109.153 32.984C108.993 32.984 108.833 32.968 108.673 32.936C108.257 32.904 107.921 32.888 107.665 32.888C107.409 32.856 107.249 32.84 107.185 32.84L102.577 30.584C102.481 29.624 102.033 29.144 101.233 29.144C101.073 29.144 100.881 29.016 100.657 28.76C100.433 28.472 100.241 28.168 100.081 27.848C99.9529 27.688 99.8409 27.512 99.7449 27.32C99.6489 27.096 99.5529 26.856 99.4569 26.6L99.0249 21.128L99.4569 17.912C99.4889 17.784 99.5849 17.624 99.7449 17.432C99.9369 17.112 100.177 16.632 100.465 15.992C100.593 15.704 100.849 15.432 101.233 15.176C101.617 14.92 102.017 14.696 102.433 14.504C102.881 14.28 103.297 14.088 103.681 13.928C104.097 13.736 104.401 13.576 104.593 13.448C104.977 13.512 105.537 13.096 106.273 12.2C106.465 11.976 106.705 11.8 106.993 11.672C107.281 11.512 107.569 11.384 107.857 11.288C108.017 11.224 108.193 11.176 108.385 11.144C108.577 11.112 108.753 11.08 108.913 11.048L114.529 11.768C114.849 11.832 115.185 11.928 115.537 12.056C115.793 12.184 116.049 12.344 116.305 12.536C116.561 12.728 116.769 12.952 116.929 13.208C117.153 13.752 117.473 14.2 117.889 14.552C118.305 14.872 118.641 15.096 118.897 15.224L120.673 18.392L120.289 21.512L119.473 22.52ZM112.369 20.888L112.753 20.6C112.849 20.536 112.945 20.472 113.041 20.408C113.137 20.312 113.217 20.248 113.281 20.216C113.505 20.152 113.761 20.024 114.049 19.832C114.337 19.64 114.449 19.4 114.385 19.112C114.385 18.568 114.097 17.96 113.521 17.288C112.945 16.616 112.193 16.136 111.265 15.848C110.817 15.688 110.385 15.608 109.969 15.608C109.553 15.608 109.153 15.64 108.769 15.704C108.417 15.736 108.081 15.784 107.761 15.848C107.473 15.912 107.233 15.944 107.041 15.944C106.305 15.784 105.889 16.12 105.793 16.952C105.313 17.688 105.073 18.504 105.073 19.4C105.105 20.264 105.201 21.096 105.361 21.896C105.361 22.344 105.441 22.712 105.601 23C105.793 23.288 106.017 23.464 106.273 23.528C106.529 23.592 106.785 23.544 107.041 23.384C107.329 23.192 107.569 22.856 107.761 22.376L112.369 20.888ZM141.449 26.984L139.289 25.688L138.473 23.912L135.353 20.696L135.017 19.976L133.241 17.672L132.953 16.808L132.857 17.144C132.825 17.272 132.809 17.56 132.809 18.008C132.841 18.456 132.761 18.776 132.569 18.968C132.473 19.096 132.361 19.352 132.233 19.736C132.105 20.088 132.025 20.328 131.993 20.456L131.849 22.136C131.881 22.2 131.913 22.248 131.945 22.28C132.009 22.312 132.057 22.392 132.089 22.52C132.121 22.648 132.137 22.856 132.137 23.144C132.137 23.4 132.089 23.784 131.993 24.296C131.801 25.288 131.721 26.056 131.753 26.6C131.817 27.112 131.849 27.4 131.849 27.464C131.849 27.592 131.865 27.848 131.897 28.232C131.961 28.584 131.929 29.08 131.801 29.72C131.641 30.936 131.609 31.912 131.705 32.648L131.177 32.936C131.049 32.904 130.857 32.888 130.601 32.888C130.345 32.888 130.057 32.904 129.737 32.936C129.449 32.936 129.145 32.952 128.825 32.984C128.505 32.984 128.233 32.984 128.009 32.984H127.385L125.369 33.464L124.121 32.792C124.121 32.28 124.185 31.704 124.313 31.064C124.409 30.424 124.489 29.864 124.553 29.384C124.617 28.904 124.649 28.536 124.649 28.28C124.649 28.216 124.617 28.072 124.553 27.848C124.489 27.592 124.441 27.416 124.409 27.32L124.745 20.072C124.841 20.072 124.905 19.96 124.937 19.736C124.969 19.512 124.985 19.272 124.985 19.016C124.985 18.76 124.969 18.52 124.937 18.296C124.905 18.04 124.873 17.88 124.841 17.816C124.809 17.784 124.825 17.656 124.889 17.432C124.985 17.208 125.097 16.968 125.225 16.712L125.561 15.992C125.625 15.864 125.673 15.784 125.705 15.752C125.769 15.688 125.817 15.64 125.849 15.608C125.913 15.416 125.929 15.256 125.897 15.128C125.865 15 125.817 14.856 125.753 14.696C125.721 14.536 125.689 14.312 125.657 14.024C125.625 13.736 125.641 13.32 125.705 12.776C125.833 11.688 125.929 10.792 125.993 10.088C126.089 9.352 126.137 8.888 126.137 8.696V7.592C126.073 7.304 126.041 7.032 126.041 6.776C126.073 6.488 125.945 6.264 125.657 6.104L125.705 5.48C125.833 5.192 126.329 5.048 127.193 5.048H129.737C129.929 5.048 130.169 4.952 130.457 4.76C130.777 4.568 131.129 4.456 131.513 4.424C131.673 4.36 131.865 4.28 132.089 4.184C132.313 4.056 132.473 3.992 132.569 3.992C132.697 3.992 132.857 4.024 133.049 4.088C133.273 4.152 133.497 4.28 133.721 4.472V5.48L136.313 10.616L137.081 14.648L138.713 17.288L140.249 20.648L140.969 20.84L142.553 19.4C142.617 19.24 142.681 19.064 142.745 18.872C142.841 18.68 142.953 18.504 143.081 18.344C143.273 18.024 143.497 17.672 143.753 17.288C144.041 16.904 144.377 16.488 144.761 16.04C146.297 14.376 146.969 13.24 146.777 12.632L148.841 9.272C149.385 9.496 149.833 9.448 150.185 9.128C150.569 8.776 150.841 7.992 151.001 6.776C151.001 6.712 150.985 6.616 150.953 6.488C150.921 6.328 150.873 6.184 150.809 6.056C151.225 5.864 151.465 5.672 151.529 5.48C151.593 5.288 151.625 5 151.625 4.616C152.009 4.456 152.345 4.36 152.633 4.328C152.953 4.264 153.289 4.184 153.641 4.088L156.905 6.056C156.873 6.344 156.841 6.648 156.809 6.968C156.777 7.288 156.729 7.624 156.665 7.976C156.601 8.424 156.537 8.904 156.473 9.416C156.409 9.896 156.345 10.376 156.281 10.856C156.249 11.304 156.201 11.72 156.137 12.104C156.105 12.488 156.073 12.792 156.041 13.016C155.977 13.336 155.913 13.896 155.849 14.696C155.785 15.464 155.705 16.52 155.609 17.864C155.513 20.52 155.849 22.056 156.617 22.472C156.617 22.696 156.601 23.192 156.569 23.96C156.569 24.728 156.553 25.832 156.521 27.272C156.489 27.976 156.473 28.6 156.473 29.144C156.473 29.688 156.473 30.168 156.473 30.584V32.072C155.609 32.296 154.697 32.504 153.737 32.696C152.809 32.888 152.073 32.984 151.529 32.984C151.305 32.984 151.081 32.904 150.857 32.744C150.633 32.584 150.489 32.328 150.425 31.976C150.649 31.784 150.761 31.688 150.761 31.688C150.793 31.688 150.729 31.608 150.569 31.448V25.784L150.905 25.016H150.569V22.808C150.569 22.456 150.553 21.976 150.521 21.368C150.489 20.76 150.441 19.992 150.377 19.064C150.281 18.136 150.217 17.432 150.185 16.952C150.153 16.44 150.137 16.152 150.137 16.088C150.137 15.992 150.217 15.784 150.377 15.464C150.569 15.112 150.745 14.824 150.905 14.6C150.969 14.44 150.985 14.28 150.953 14.12C150.953 13.928 150.969 13.768 151.001 13.64C151.001 13.512 151.065 13.4 151.193 13.304C151.353 13.176 151.465 13.08 151.529 13.016C151.465 12.824 151.385 12.616 151.289 12.392C151.225 12.168 151.193 12.024 151.193 11.96C149.657 11.256 149.193 11.784 149.801 13.544L148.697 15.944L145.385 20.84L142.409 26.552L141.449 26.984ZM184.88 17C184.976 17.544 185.024 18.024 185.024 18.44C185.024 18.824 185.008 19.208 184.976 19.592C184.976 19.944 184.992 20.296 185.024 20.648C185.088 20.968 185.216 21.32 185.408 21.704C185.344 21.832 185.184 22.088 184.928 22.472C184.704 22.824 184.544 23.192 184.448 23.576C184.384 23.928 184.336 24.2 184.304 24.392C184.272 24.584 184.24 24.712 184.208 24.776C184.304 24.84 184.384 24.968 184.448 25.16C184.48 25.32 184.448 25.528 184.352 25.784C184.256 26.008 184.064 26.328 183.776 26.744C183.2 27.512 182.88 28.168 182.816 28.712C182.752 29.224 182.624 29.624 182.432 29.912C182.368 29.976 182.16 30.072 181.808 30.2C181.488 30.328 181.104 30.488 180.656 30.68C180.208 30.84 179.76 31.032 179.312 31.256C178.864 31.48 178.512 31.704 178.256 31.928C177.712 32.024 177.232 32.152 176.816 32.312C176.4 32.472 175.888 32.584 175.28 32.648C174.704 32.776 174.112 32.936 173.504 33.128C172.896 33.288 172.56 33.368 172.496 33.368C170.992 33.368 170.096 33.416 169.808 33.512C169.552 33.608 169.248 33.656 168.896 33.656L164.528 32.072L162.512 29.144C162.512 28.376 162.48 27.736 162.416 27.224C162.384 26.68 162.336 26.216 162.272 25.832C162.208 25.416 162.16 25.032 162.128 24.68C162.096 24.328 162.096 23.928 162.128 23.48C162.224 23.384 162.368 23.16 162.56 22.808C162.752 22.424 162.944 21.992 163.136 21.512C163.36 21.032 163.568 20.536 163.76 20.024C163.984 19.512 164.144 19.08 164.24 18.728C164.496 17.992 164.688 17.352 164.816 16.808C164.944 16.232 165.04 15.72 165.104 15.272C165.36 15.112 165.568 14.936 165.728 14.744C165.888 14.552 166.048 14.392 166.208 14.264C167.52 13.496 168.656 12.872 169.616 12.392C170.576 11.88 171.472 11.56 172.304 11.432L173.744 11.336C173.904 11.368 174.048 11.4 174.176 11.432C174.304 11.464 174.432 11.496 174.56 11.528C174.752 11.592 174.928 11.64 175.088 11.672C175.248 11.672 175.344 11.672 175.376 11.672L176.336 13.16C176.336 13.448 176.272 13.688 176.144 13.88C176.016 14.04 176.144 14.152 176.528 14.216C176.944 14.312 177.168 14.376 177.2 14.408V14.456C177.712 14.456 178.24 14.344 178.784 14.12C179.328 13.864 179.872 13.736 180.416 13.736C180.544 13.736 180.768 13.8 181.088 13.928C181.408 14.024 181.744 14.152 182.096 14.312C182.448 14.472 182.768 14.632 183.056 14.792C183.376 14.92 183.6 15.016 183.728 15.08C183.664 15.56 183.68 15.896 183.776 16.088C183.872 16.28 184 16.424 184.16 16.52C184.32 16.584 184.464 16.648 184.592 16.712C184.752 16.744 184.848 16.84 184.88 17ZM176.288 29C176.768 28.68 177.232 27.656 177.68 25.928C177.936 25 178.144 24.312 178.304 23.864C178.496 23.384 178.592 22.936 178.592 22.52C178.592 21.816 178.352 20.984 177.872 20.024C177.616 19.512 177.424 19.08 177.296 18.728C177.168 18.376 177.072 18.024 177.008 17.672C176.752 17.544 176.608 17.352 176.576 17.096C176.576 16.808 176.448 16.52 176.192 16.232C175.872 15.976 175.68 15.88 175.616 15.944C175.552 16.008 175.488 16.04 175.424 16.04H174.992C174.736 16.04 174.384 16.088 173.936 16.184C173.52 16.28 173.184 16.504 172.928 16.856C172.544 17.272 172.208 17.608 171.92 17.864C171.664 18.088 171.52 18.232 171.488 18.296C171.168 18.904 170.88 19.432 170.624 19.88C170.368 20.296 170.16 20.632 170 20.888L169.568 21.896C169.376 22.376 169.296 23.016 169.328 23.816C169.392 23.944 169.456 24.232 169.52 24.68C169.584 25.096 169.392 25.544 168.944 26.024C168.848 26.12 168.752 26.312 168.656 26.6C168.56 26.856 168.496 27.16 168.464 27.512C168.432 27.864 168.464 28.216 168.56 28.568C168.688 28.92 168.928 29.224 169.28 29.48C169.728 29.8 170.192 30.12 170.672 30.44C171.152 30.728 171.456 30.872 171.584 30.872H172.112C172.304 30.872 172.48 30.92 172.64 31.016L176.288 29ZM199.814 32.936C199.686 32.584 199.366 32.104 198.854 31.496C198.342 30.856 197.942 30.168 197.654 29.432C197.11 27.96 196.71 26.92 196.454 26.312C196.23 25.672 196.022 25.32 195.83 25.256C195.67 25.192 195.462 25.016 195.206 24.728C194.95 24.44 194.662 24.232 194.342 24.104C193.99 22.984 193.574 21.8 193.094 20.552C192.614 19.272 191.974 18.088 191.174 17C190.822 16.52 190.566 16.12 190.406 15.8C190.278 15.448 190.166 15.144 190.07 14.888C190.006 14.632 189.926 14.424 189.83 14.264C189.734 14.072 189.574 13.896 189.35 13.736V11.96C189.67 11.768 190.086 11.672 190.598 11.672C190.822 11.672 190.966 11.576 191.03 11.384C191.126 11.16 191.254 11 191.414 10.904C191.574 10.84 191.846 10.744 192.23 10.616C192.646 10.488 192.886 10.344 192.95 10.184L194.63 10.52C194.886 10.68 195.078 10.744 195.206 10.712C195.334 10.68 195.478 10.728 195.638 10.856C195.926 11.112 196.23 11.336 196.55 11.528C196.87 11.72 197.238 11.896 197.654 12.056C197.558 12.12 197.654 12.584 197.942 13.448C198.262 14.28 198.678 15.304 199.19 16.52C199.702 17.736 200.262 19.048 200.87 20.456C201.51 21.832 202.102 23.08 202.646 24.2C203.222 25.32 203.702 26.216 204.086 26.888C204.502 27.56 204.742 27.784 204.806 27.56C204.934 27.592 205.094 27.336 205.286 26.792C205.478 26.248 205.702 25.608 205.958 24.872C206.182 24.072 206.438 23.4 206.726 22.856C207.014 22.312 207.222 21.912 207.35 21.656C207.766 21.4 208.038 21.144 208.166 20.888C208.326 20.632 208.534 20.328 208.79 19.976C208.982 19.752 209.11 19.512 209.174 19.256C209.27 18.968 209.334 18.808 209.366 18.776C209.622 18.264 209.958 17.672 210.374 17C210.822 16.328 211.062 15.56 211.094 14.696C211.158 14.12 211.27 13.624 211.43 13.208C211.622 12.76 211.75 12.408 211.814 12.152L213.254 12.008L214.838 13.112C214.838 13.496 214.774 13.848 214.646 14.168C214.518 14.456 214.47 14.728 214.502 14.984C214.502 15.112 214.438 15.288 214.31 15.512C214.182 15.704 214.038 15.912 213.878 16.136C213.75 16.36 213.622 16.584 213.494 16.808C213.398 17 213.35 17.144 213.35 17.24C213.318 17.464 213.19 17.72 212.966 18.008C212.742 18.296 212.614 18.664 212.582 19.112C212.582 20.04 212.438 20.696 212.15 21.08C211.798 21.592 211.35 22.296 210.806 23.192C210.262 24.056 209.686 25.08 209.078 26.264C208.47 27.448 207.99 28.472 207.638 29.336C207.286 30.168 207.078 30.68 207.014 30.872L206.63 31.544L205.574 33.224C205.03 33.544 204.454 33.736 203.846 33.8C203.238 33.864 202.598 33.704 201.926 33.32L200.87 33.704L199.814 32.936ZM222.322 3.992C222.386 3.736 222.418 3.496 222.418 3.272C222.45 3.016 222.482 2.76 222.514 2.504C222.514 2.28 222.514 2.088 222.514 1.928C222.546 1.768 222.562 1.624 222.562 1.496L222.802 0.967998C222.898 0.935998 223.026 0.919998 223.186 0.919998C223.346 0.919998 223.538 0.903998 223.762 0.871999C224.434 0.839999 224.866 0.759999 225.058 0.631999C225.058 0.599999 225.138 0.535999 225.298 0.439999C225.394 0.343998 225.474 0.279998 225.538 0.247998C225.57 0.247998 225.682 0.263998 225.874 0.295998C226.066 0.327997 226.322 0.391997 226.642 0.487998C227.186 0.615998 227.57 0.679998 227.794 0.679998C228.082 0.679998 228.242 0.663999 228.274 0.631999C228.306 0.599999 228.402 0.599999 228.562 0.631999L228.994 1.448L229.426 3.896L228.418 5.576C228.386 5.608 228.354 5.64 228.322 5.672C228.322 5.704 228.29 5.736 228.226 5.768C228.066 5.864 227.874 6.008 227.65 6.2L227.506 6.344L226.066 6.488C225.874 6.424 225.65 6.36 225.394 6.296C225.138 6.2 224.834 6.088 224.482 5.96C224.13 5.832 223.826 5.72 223.57 5.624C223.314 5.496 223.09 5.4 222.898 5.336L222.658 5.096L222.322 3.992ZM228.274 12.248L228.082 13.976L228.274 14.696L227.986 15.464L228.13 16.568L227.89 17.48L228.034 17.768L227.842 19.928L227.65 24.488C227.65 24.712 227.618 25 227.554 25.352C227.49 25.672 227.442 26.024 227.41 26.408C227.378 26.76 227.378 27.128 227.41 27.512C227.442 27.864 227.538 28.168 227.698 28.424C227.666 28.904 227.618 29.464 227.554 30.104C227.49 30.744 227.378 31.48 227.218 32.312C226.962 32.664 226.69 32.984 226.402 33.272C226.146 33.528 225.65 33.672 224.914 33.704C224.498 33.736 224.082 33.768 223.666 33.8C223.282 33.832 222.914 33.88 222.562 33.944C222.37 33.976 222.178 34.008 221.986 34.04C221.794 34.072 221.586 34.12 221.362 34.184L220.162 32.648C220.194 32.488 220.242 32.056 220.306 31.352C220.402 30.616 220.482 29.752 220.546 28.76C220.61 27.768 220.642 26.712 220.642 25.592C220.674 24.472 220.642 23.432 220.546 22.472L220.834 21.56L221.266 19.448L221.41 17.768L221.698 17.192L221.746 16.76L222.034 15.464L222.274 12.824L226.594 11.144L228.274 12.248ZM254.989 22.52C254.285 22.424 253.661 22.552 253.117 22.904C252.925 23 252.733 23.096 252.541 23.192C252.349 23.256 252.157 23.32 251.965 23.384C251.869 23.416 251.773 23.448 251.677 23.48C251.581 23.512 251.501 23.544 251.437 23.576L244.765 25.592C242.909 25.176 242.253 25.48 242.797 26.504C242.893 26.728 243.021 27.064 243.181 27.512C243.341 27.96 243.469 28.28 243.565 28.472C243.981 28.632 244.413 28.888 244.861 29.24C245.309 29.56 245.725 29.752 246.109 29.816L246.973 29.72C247.197 29.72 247.501 29.704 247.885 29.672C248.301 29.64 248.701 29.592 249.085 29.528C249.501 29.432 249.869 29.32 250.189 29.192C250.541 29.064 250.781 28.904 250.909 28.712C251.005 28.552 251.149 28.44 251.341 28.376C251.533 28.28 251.725 28.2 251.917 28.136C252.045 28.104 252.157 28.088 252.253 28.088C252.381 28.056 252.525 28.024 252.685 27.992L253.213 29.864L252.637 30.968C252.605 31.032 252.493 31.112 252.301 31.208C252.141 31.272 251.949 31.368 251.725 31.496C251.501 31.624 251.277 31.752 251.053 31.88C250.861 31.976 250.717 32.072 250.621 32.168C250.557 32.232 250.381 32.264 250.093 32.264C249.837 32.264 249.533 32.264 249.181 32.264C248.861 32.264 248.525 32.28 248.173 32.312C247.821 32.344 247.549 32.408 247.357 32.504C246.909 32.728 246.557 32.872 246.301 32.936C246.077 33 245.885 33.048 245.725 33.08C245.565 33.144 245.453 33.128 245.389 33.032C245.325 33 245.213 32.984 245.053 32.984C244.957 32.984 244.829 32.984 244.669 32.984C244.509 32.984 244.349 32.968 244.189 32.936C243.773 32.904 243.437 32.888 243.181 32.888C242.925 32.856 242.765 32.84 242.701 32.84L238.093 30.584C237.997 29.624 237.549 29.144 236.749 29.144C236.589 29.144 236.397 29.016 236.173 28.76C235.949 28.472 235.757 28.168 235.597 27.848C235.469 27.688 235.357 27.512 235.261 27.32C235.165 27.096 235.069 26.856 234.973 26.6L234.541 21.128L234.973 17.912C235.005 17.784 235.101 17.624 235.261 17.432C235.453 17.112 235.693 16.632 235.981 15.992C236.109 15.704 236.365 15.432 236.749 15.176C237.133 14.92 237.533 14.696 237.949 14.504C238.397 14.28 238.813 14.088 239.197 13.928C239.613 13.736 239.917 13.576 240.109 13.448C240.493 13.512 241.053 13.096 241.789 12.2C241.981 11.976 242.221 11.8 242.509 11.672C242.797 11.512 243.085 11.384 243.373 11.288C243.533 11.224 243.709 11.176 243.901 11.144C244.093 11.112 244.269 11.08 244.429 11.048L250.045 11.768C250.365 11.832 250.701 11.928 251.053 12.056C251.309 12.184 251.565 12.344 251.821 12.536C252.077 12.728 252.285 12.952 252.445 13.208C252.669 13.752 252.989 14.2 253.405 14.552C253.821 14.872 254.157 15.096 254.413 15.224L256.189 18.392L255.805 21.512L254.989 22.52ZM247.885 20.888L248.269 20.6C248.365 20.536 248.461 20.472 248.557 20.408C248.653 20.312 248.733 20.248 248.797 20.216C249.021 20.152 249.277 20.024 249.565 19.832C249.853 19.64 249.965 19.4 249.901 19.112C249.901 18.568 249.613 17.96 249.037 17.288C248.461 16.616 247.709 16.136 246.781 15.848C246.333 15.688 245.901 15.608 245.485 15.608C245.069 15.608 244.669 15.64 244.285 15.704C243.933 15.736 243.597 15.784 243.277 15.848C242.989 15.912 242.749 15.944 242.557 15.944C241.821 15.784 241.405 16.12 241.309 16.952C240.829 17.688 240.589 18.504 240.589 19.4C240.621 20.264 240.717 21.096 240.877 21.896C240.877 22.344 240.957 22.712 241.117 23C241.309 23.288 241.533 23.464 241.789 23.528C242.045 23.592 242.301 23.544 242.557 23.384C242.845 23.192 243.085 22.856 243.277 22.376L247.885 20.888ZM259.637 15.272L261.701 11.96C261.829 11.96 261.957 11.96 262.085 11.96C262.213 11.928 262.357 11.896 262.517 11.864C262.773 11.832 263.109 11.784 263.525 11.72C263.941 11.656 264.421 11.592 264.965 11.528C267.141 11.272 267.941 10.744 267.365 9.944L274.229 8.936H276.005L276.341 9.32L276.533 10.904L275.717 11.528L273.317 11.576L270.197 13.112L266.741 14.216L266.165 15.512L267.269 18.2L268.613 18.392L269.237 19.784L270.389 19.688L271.061 20.504C271.349 20.408 271.637 20.344 271.925 20.312C272.213 20.248 272.469 20.248 272.693 20.312C272.853 20.344 273.029 20.376 273.221 20.408C273.413 20.408 273.637 20.44 273.893 20.504C274.213 20.6 274.437 20.712 274.565 20.84C274.693 20.936 274.805 21.032 274.901 21.128C274.997 21.192 275.109 21.256 275.237 21.32C275.365 21.384 275.589 21.416 275.909 21.416C276.005 21.608 276.181 21.8 276.437 21.992C276.725 22.184 277.029 22.376 277.349 22.568C277.701 22.76 278.037 22.952 278.357 23.144C278.709 23.336 278.965 23.528 279.125 23.72C279.189 23.784 279.221 23.832 279.221 23.864C279.253 23.896 279.301 23.944 279.365 24.008L279.653 26.312L278.597 29.192L278.309 31.208L275.957 32.408L272.069 33.944L269.717 33.608C268.885 33.48 268.149 33.48 267.509 33.608C266.869 33.736 266.277 33.8 265.733 33.8H260.453L259.877 32.36L260.261 30.968L267.221 30.248L269.525 29.96L272.405 26.888L271.973 25.496L269.861 25.112L266.165 24.104L265.541 24.44L263.525 23.528L262.229 22.664L260.741 19.4L259.637 17.24V15.272Z" fill="#5C2786"/>
</svg>
