<svg width="30" height="30" viewBox="0 0 30 30" fill="none" xmlns="http://www.w3.org/2000/svg">
<path d="M15 3.4375C13.7768 3.4375 12.7338 4.21879 12.3473 5.31241C12.1748 5.80059 11.6391 6.05646 11.151 5.88391C10.6628 5.71136 10.4069 5.17575 10.5795 4.68759C11.2225 2.86824 12.9576 1.5625 15 1.5625C17.0425 1.5625 18.7775 2.86824 19.4206 4.68759C19.5931 5.17575 19.3372 5.71136 18.8491 5.88391C18.3608 6.05646 17.8252 5.80059 17.6527 5.31241C17.2662 4.21879 16.2231 3.4375 15 3.4375Z" fill="#FF0000"/>
<path d="M3.4375 7.5C3.4375 6.98224 3.85724 6.5625 4.375 6.5625H25.6251C26.1429 6.5625 26.5626 6.98224 26.5626 7.5C26.5626 8.01776 26.1429 8.4375 25.6251 8.4375H4.375C3.85724 8.4375 3.4375 8.01776 3.4375 7.5Z" fill="#FF0000"/>
<path d="M7.39395 10.5626C7.35951 10.046 6.91278 9.65511 6.39617 9.68955C5.87955 9.72399 5.48866 10.1707 5.52311 10.6873L6.10242 19.377C6.20928 20.9805 6.29561 22.2756 6.49807 23.292C6.70857 24.3486 7.0666 25.2312 7.8061 25.923C8.54558 26.6149 9.45002 26.9134 10.5183 27.0531C11.5459 27.1875 12.844 27.1875 14.451 27.1875H15.5495C17.1565 27.1875 18.4545 27.1875 19.4821 27.0531C20.5503 26.9134 21.4548 26.6149 22.1943 25.923C22.9338 25.2312 23.2918 24.3486 23.5023 23.292C23.7047 22.2756 23.7911 20.9805 23.898 19.377L24.4773 10.6873C24.5117 10.1707 24.1208 9.72399 23.6042 9.68955C23.0876 9.65511 22.6408 10.046 22.6065 10.5626L22.0315 19.1865C21.9192 20.8714 21.8391 22.0436 21.6635 22.9256C21.493 23.7812 21.2551 24.2341 20.9133 24.5539C20.5716 24.8735 20.1038 25.0808 19.2388 25.194C18.3471 25.3106 17.1721 25.3125 15.4836 25.3125H14.5168C12.8283 25.3125 11.6533 25.3106 10.7615 25.194C9.89653 25.0808 9.42883 24.8735 9.08706 24.5539C8.7453 24.2341 8.50738 23.7812 8.33695 22.9256C8.16123 22.0436 8.0812 20.8714 7.96888 19.1865L7.39395 10.5626Z" fill="#FF0000"/>
<path d="M11.7818 12.8171C12.297 12.7656 12.7563 13.1415 12.808 13.6567L13.433 19.9067C13.4845 20.4218 13.1086 20.8813 12.5933 20.9328C12.0782 20.9843 11.6187 20.6085 11.5672 20.0932L10.9422 13.8432C10.8907 13.3281 11.2666 12.8686 11.7818 12.8171Z" fill="#FF0000"/>
<path d="M19.058 13.8432C19.1095 13.3281 18.7336 12.8686 18.2183 12.8171C17.7032 12.7656 17.2437 13.1415 17.1922 13.6567L16.5672 19.9067C16.5157 20.4218 16.8916 20.8813 17.4068 20.9328C17.922 20.9843 18.3813 20.6085 18.433 20.0932L19.058 13.8432Z" fill="#FF0000"/>
</svg>
