<svg width="30" height="30" viewBox="0 0 30 30" fill="none" xmlns="http://www.w3.org/2000/svg">
<path fill-rule="evenodd" clip-rule="evenodd" d="M23.9825 2.61251C24.6337 2.92501 25.4025 3.37751 26.0137 3.98876C26.6262 4.60126 27.0787 5.36876 27.3887 6.02001C27.78 6.83751 27.5262 7.78001 26.8875 8.42001L17.87 17.4363C17.4825 17.8238 17.01 18.1125 16.4887 18.28L11.2112 19.9713C11.0471 20.0239 10.8716 20.0303 10.7041 19.9897C10.5366 19.9491 10.3835 19.8631 10.2616 19.7411C10.1398 19.6192 10.054 19.466 10.0135 19.2984C9.97311 19.1308 9.97967 18.9553 10.0325 18.7913L11.7237 13.515C11.8907 12.9941 12.1795 12.5206 12.5662 12.1338L21.5837 3.11626C22.2237 2.47626 23.1662 2.22376 23.9837 2.61376L23.9825 2.61251ZM24.2462 5.75751C23.9375 5.46582 23.589 5.21921 23.2112 5.02501L14.4687 13.7675C14.3799 13.8562 14.3049 13.9578 14.2462 14.0688L12.375 17.6275L15.9325 15.7575C16.045 15.6988 16.1462 15.6238 16.235 15.535L24.9775 6.79251C24.7833 6.41475 24.5379 6.06631 24.2462 5.75751ZM6.24875 6.87501C6.24848 6.71534 6.30933 6.56162 6.41881 6.4454C6.52829 6.32918 6.6781 6.25927 6.8375 6.25001L13.75 6.25626C14.0815 6.25626 14.3995 6.12456 14.6339 5.89014C14.8683 5.65572 15 5.33778 15 5.00626C15 4.67474 14.8683 4.35679 14.6339 4.12237C14.3995 3.88795 14.0815 3.75626 13.75 3.75626L6.875 3.75001C6.0462 3.75001 5.25134 4.07925 4.66529 4.6653C4.07924 5.25135 3.75 6.0462 3.75 6.87501V22.5963C3.75 23.5463 3.8525 24.0775 4.14875 24.63C4.42875 25.1538 4.84625 25.5725 5.37 25.8525C5.9225 26.1475 6.4525 26.25 7.40375 26.25H22.5962C23.5462 26.25 24.0775 26.1475 24.63 25.8525C25.155 25.5725 25.5725 25.1538 25.8525 24.63C26.1475 24.0775 26.25 23.5475 26.25 22.5963V16.25C26.25 15.9185 26.1183 15.6005 25.8839 15.3661C25.6495 15.1317 25.3315 15 25 15C24.6685 15 24.3505 15.1317 24.1161 15.3661C23.8817 15.6005 23.75 15.9185 23.75 16.25V22.5963C23.75 23.17 23.7237 23.31 23.6475 23.4513C23.6041 23.5355 23.5355 23.6041 23.4512 23.6475C23.31 23.7225 23.17 23.75 22.5962 23.75H7.40375C6.83 23.75 6.69125 23.7225 6.54875 23.6475C6.46444 23.6042 6.39581 23.5356 6.3525 23.4513C6.2775 23.31 6.25 23.17 6.25 22.5963L6.24875 6.87501Z" fill="black"/>
</svg>
